#!OML:ASF F:\Work\Patient Classification 1\justin\Session 1\justin.ASF
:FULLY-SPECIFIED
:DEGREES
8747
root 0.547737 16.798 4.90027 3.15867 -23.4976 -6.8127
lowerback 16.3081 3.66733 9.35269
upperback 2.52857 6.68017 4.18118
thorax -5.8378 3.07526 -2.14655
lowerneck -21.1445 -1.35183 -13.529
upperneck 9.62261 0.530442 9.82163
head 6.28105 0.59482 5.47805
rclavicle 1.66979e-014 3.49861e-014
rhumerus -36.4671 14.3813 -91.3014
rradius 115.935
rwrist -12.6569
rhand -14.4087 26.6895
rfingers 7.12502
rthumb 11.735 -2.96174
lclavicle 1.66979e-014 3.49861e-014
lhumerus -48.7898 -0.398935 91.7332
lradius 110.871
lwrist 3.00396
lhand -12.1351 15.1342
lfingers 7.12502
lthumb 13.9268 44.6478
rfemur 7.01289 -2.39926 20.4644
rtibia 30.7756
rfoot -31.7333 -3.07668
rtoes -35.3697
lfemur -40.877 0.111012 4.57178
ltibia 31.6241
lfoot 11.1731 -5.75603
ltoes -26.7988
8748
root 0.521532 16.8319 4.78814 2.82213 -22.6645 -6.89527
lowerback 16.5351 3.88242 9.41585
upperback 2.34218 7.02018 4.09688
thorax -6.11306 3.22103 -2.36072
lowerneck -20.6643 -1.77365 -13.8768
upperneck 9.47527 -0.0426278 10.1166
head 6.22894 0.321903 5.56448
rclavicle 2.38542e-015 -3.49861e-014
rhumerus -37.329 14.1258 -91.4374
rradius 116.158
rwrist -12.4693
rhand -13.9994 26.7844
rfingers 7.12502
rthumb 12.1297 -2.84397
lclavicle 2.38542e-015 -3.49861e-014
lhumerus -49.6951 -0.542436 91.9319
lradius 110.488
lwrist 2.6367
lhand -11.7749 15.2685
lfingers 7.12502
lthumb 14.2739 44.7579
rfemur 7.20094 -2.55681 21.0703
rtibia 30.5102
rfoot -31.4501 -3.55205
rtoes -35.5117
lfemur -41.0456 0.200024 4.384
ltibia 32.5203
lfoot 11.5837 -4.10089
ltoes -20.9445
8749
root 0.491404 16.868 4.68106 2.36512 -21.8162 -6.71324
lowerback 16.4686 4.11286 9.16606
upperback 2.55218 7.2458 4.00881
thorax -5.84525 3.35602 -2.34423
lowerneck -21.1807 -2.28399 -14.3449
upperneck 9.57211 -0.580028 10.45
head 6.41474 0.0823546 5.70643
rclavicle -1.43125e-014 -4.45278e-014
rhumerus -37.1581 14.0094 -91.2034
rradius 116.12
rwrist -12.5371
rhand -13.3179 27.0311
rfingers 7.12502
rthumb 12.7867 -2.55732
lclavicle -1.43125e-014 -4.45278e-014
lhumerus -50.0773 -0.471305 92.2117
lradius 110.304
lwrist 2.22241
lhand -11.4361 15.7569
lfingers 7.12502
lthumb 14.6003 45.223
rfemur 7.53823 -2.61215 21.4188
rtibia 30.1782
rfoot -31.1255 -3.91299
rtoes -34.9189
lfemur -41.2068 0.327822 3.83712
ltibia 33.6495
lfoot 9.80195 -6.20377
ltoes -25.6494
8750
root 0.466262 16.903 4.58451 1.97257 -21.1374 -6.4255
lowerback 16.2158 4.44055 8.86146
upperback 2.7221 7.57207 3.89265
thorax -5.51493 3.54368 -2.32834
lowerneck -21.6276 -2.79423 -14.9449
upperneck 9.89229 -1.11395 10.902
head 6.66785 -0.154703 5.9138
rclavicle 3.26007e-014 1.74931e-014
rhumerus -37.1542 13.8662 -90.9163
rradius 116.153
rwrist -12.83
rhand -12.8675 27.0283
rfingers 7.12502
rthumb 13.2209 -2.53247
lclavicle 3.26007e-014 1.74931e-014
lhumerus -50.8245 -0.162105 92.5114
lradius 110.313
lwrist 1.64542
lhand -10.5337 17.0475
lfingers 7.12502
lthumb 15.4697 46.4485
rfemur 7.77465 -2.47685 21.6122
rtibia 29.827
rfoot -30.7526 -4.35739
rtoes -34.5332
lfemur -41.396 0.596517 3.13129
ltibia 34.9061
lfoot 8.74264 -7.0416
ltoes -26.659
8751
root 0.449222 16.9414 4.50736 1.72601 -20.6965 -6.39744
lowerback 15.9522 4.81522 8.85782
upperback 2.72073 8.03205 3.83588
thorax -5.3213 3.78002 -2.43903
lowerneck -20.9585 -3.22291 -15.7127
upperneck 9.60273 -1.64602 11.4614
head 6.5535 -0.404347 6.15975
rclavicle -1.23246e-014 -1.59028e-015
rhumerus -37.8092 13.7759 -90.7734
rradius 116.407
rwrist -13.1176
rhand -12.6691 26.9212
rfingers 7.12502
rthumb 13.4121 -2.62705
lclavicle -1.23246e-014 -1.59028e-015
lhumerus -51.5284 -0.630215 92.7541
lradius 110.03
lwrist 1.32249
lhand -10.701 16.0616
lfingers 7.12502
lthumb 15.3085 45.4751
rfemur 7.91507 -2.20965 22.0025
rtibia 29.4541
rfoot -30.2544 -5.14513
rtoes -35.0563
lfemur -41.5198 0.873941 2.73716
ltibia 36.2421
lfoot 7.8386 -7.36242
ltoes -28.0531
8752
root 0.426068 16.9644 4.40759 1.28138 -19.1469 -6.42601
lowerback 16.0151 4.76362 8.9228
upperback 2.64597 7.99534 3.85106
thorax -5.43344 3.75521 -2.46298
lowerneck -19.8386 -3.58385 -16.2057
upperneck 8.95124 -2.17779 11.6998
head 6.2497 -0.677817 6.23963
rclavicle -9.44227e-014 -2.06736e-014
rhumerus -38.3455 13.8574 -90.6476
rradius 116.452
rwrist -13.3886
rhand -12.6415 27.0428
rfingers 7.12502
rthumb 13.4388 -2.50373
lclavicle -9.44227e-014 -2.06736e-014
lhumerus -52.2276 -1.03005 92.8652
lradius 109.716
lwrist 0.864612
lhand -11.7345 13.2949
lfingers 7.12502
lthumb 14.3128 42.7816
rfemur 8.35575 -2.55922 22.7571
rtibia 29.0919
rfoot -29.8221 -6.36604
rtoes -34.8502
lfemur -42.0153 0.643752 2.25192
ltibia 37.6002
lfoot 7.2761 -8.15002
ltoes -29.4515
8753
root 0.40081 16.9825 4.30832 0.765513 -17.4315 -6.37998
lowerback 16.0182 4.66914 8.93429
upperback 2.74764 7.866 3.8308
thorax -5.33352 3.70108 -2.46254
lowerneck -19.5953 -4.02585 -16.3698
upperneck 8.65013 -2.73831 11.5805
head 6.19632 -0.965597 6.15427
rclavicle 6.69904e-014 1.66979e-014
rhumerus -38.3408 13.9153 -90.4045
rradius 116.233
rwrist -13.5651
rhand -12.7438 27.44
rfingers 7.12502
rthumb 13.3402 -2.11302
lclavicle 6.69904e-014 1.66979e-014
lhumerus -52.4916 -1.47842 92.9117
lradius 109.383
lwrist 0.342296
lhand -11.9414 14.4535
lfingers 7.12502
lthumb 14.1135 43.9542
rfemur 8.90662 -2.89973 23.5004
rtibia 28.6634
rfoot -29.446 -7.45822
rtoes -33.8511
lfemur -42.5443 0.273732 1.66109
ltibia 39.021
lfoot 7.51819 -8.20176
ltoes -28.0189
